:SAMPLES-PER-SECOND 30
:FRAME-RANGE 1-1770
:FULLY-SPECIFIED
:DEGREES
443
root  37.4501 38.5736 26.835 -177.582 38.9429 177.659
RightUpLeg  -20.7909 10.216 -20.1622
RightLeg  22.4655 3.27679 1.27966
RightFoot  -12.0612 -0.00409607 12.3914
RightToes  -1.33073e-015 0 -3.6325e-017
Spine  3.73214 2.65536 3.46394
Spine1  3.12536 3.98099 -4.97952
HEad  -15.9406 69.0009 -30.2661
LeftShoulder1  0.618557 0.988124 -20.5019
LeftArm  29.1373 -11.6812 -60.5304
LeftForeArm  30.8123 -30.6105 -4.96684
LeftHand  -0.0703134 4.31848 5.6265
RightShoulder  1.5678 2.08495 22.8843
RightArm  -26.6567 -18.6171 36.1707
RightForeArm  75.3075 -4.95894 2.71722
RightHand  0.272597 -8.45093 -11.4162
LeftUpLeg  -21.5389 -6.57998 -4.54041
LeftLeg  25.6013 1.83434 1.31627
LeftFoot  -7.93759 -0.0493095 3.26723
LeftToes  1.09107e-011 -1.16422e-010 2.98337e-011
444
root  38.3957 38.4844 26.8633 -178.134 36.3975 177.48
RightUpLeg  -19.0486 15.751 -22.3897
RightLeg  17.8362 5.83856 1.89828
RightFoot  -13.2557 0.0534283 8.57763
RightToes  -1.33073e-015 0 -3.6325e-017
Spine  3.38211 2.32022 3.40329
Spine1  3.38511 3.49811 -4.52771
HEad  -16.8022 68.3638 -30.5387
LeftShoulder1  0.628888 0.964982 -20.6918
LeftArm  28.289 -12.4108 -61.3994
LeftForeArm  34.532 -33.4372 -5.43804
LeftHand  -0.0722872 4.20876 5.32162
RightShoulder  1.45804 1.64753 23.2411
RightArm  -27.4938 -21.5973 37.1586
RightForeArm  75.1812 -4.91427 2.41979
RightHand  0.248144 -8.32612 -10.9512
LeftUpLeg  -20.9453 -8.03563 -3.6633
LeftLeg  27.1916 0.785395 0.796403
LeftFoot  -9.61872 0.0201867 2.50477
LeftToes  1.09107e-011 -1.16422e-010 2.98337e-011
445
root  39.426 38.3104 26.9715 -178.868 34.2325 176.969
RightUpLeg  -17.5409 14.1175 -22.096
RightLeg  17.0735 9.80636 3.17126
RightFoot  -12.8032 0.0708977 12.3523
RightToes  -1.33073e-015 0 -3.6325e-017
Spine  3.026 2.11535 2.6302
Spine1  3.81098 3.21032 -4.38758
HEad  -17.0494 67.9578 -30.4872
LeftShoulder1  0.619876 1.03947 -21.2101
LeftArm  28.3351 -13.2176 -61.6024
LeftForeArm  36.2183 -34.9588 -5.7236
LeftHand  -0.0657796 4.39106 5.45031
RightShoulder  1.40509 1.39257 23.7289
RightArm  -28.3375 -23.3158 38.3584
RightForeArm  75.4549 -4.85696 2.14595
RightHand  0.212297 -8.04254 -10.543
LeftUpLeg  -20.6162 -8.9609 -2.85071
LeftLeg  29.1437 -0.401553 0.12135
LeftFoot  -11.5408 0.0718985 1.47652
LeftToes  1.09107e-011 -1.16422e-010 2.98337e-011
446
root  40.5111 38.1851 27.133 -179.359 33.0297 176.075
RightUpLeg  -17.3543 9.85518 -21.2547
RightLeg  18.8899 13.1248 4.75662
RightFoot  -11.3458 -0.0768858 16.5158
RightToes  -1.33073e-015 0 -3.6325e-017
Spine  2.01045 2.2035 1.71101
Spine1  4.65575 3.32956 -4.63123
HEad  -16.3316 67.9833 -29.4943
LeftShoulder1  0.574327 1.22558 -21.4847
LeftArm  28.4508 -13.8492 -61.3282
LeftForeArm  36.8938 -34.9747 -5.68985
LeftHand  -0.0665577 4.4368 5.82224
RightShoulder  1.43842 1.40165 24.4184
RightArm  -29.8231 -23.6987 40.1715
RightForeArm  76.0481 -4.73258 1.55384
RightHand  0.195202 -7.80009 -10.7283
LeftUpLeg  -20.2914 -9.18719 -2.09909
LeftLeg  30.0711 -1.34709 -0.476565
LeftFoot  -13.0708 0.0835416 0.337378
LeftToes  1.09107e-011 -1.16422e-010 2.98337e-011
447
root  41.5188 38.2782 27.2702 -179.843 32.1089 175.574
RightUpLeg  -16.6263 12.3583 -20.3082
RightLeg  19.8683 10.0123 3.78816
RightFoot  -12.5334 0.0965846 17.3939
RightToes  -1.33073e-015 0 -3.6325e-017
Spine  1.31152 2.26323 1.97752
Spine1  5.38444 3.47478 -4.99226
HEad  -15.4676 68.5277 -28.7649
LeftShoulder1  0.480673 1.58183 -21.777
LeftArm  28.9374 -14.1125 -60.092
LeftForeArm  36.7894 -34.3512 -5.53911
LeftHand  -0.052404 4.70732 5.44906
RightShoulder  1.4743 1.46206 24.8072
RightArm  -30.8572 -23.5404 42.5188
RightForeArm  76.6772 -4.65803 1.26791
RightHand  0.195879 -7.77262 -10.8701
LeftUpLeg  -18.7522 -9.47654 -1.13333
LeftLeg  28.903 -2.06559 -0.876288
LeftFoot  -13.4916 0.0609059 -1.06679
LeftToes  1.09107e-011 -1.16422e-010 2.98337e-011
448
root  42.5251 38.4557 27.3308 -179.921 31.7039 176.395
RightUpLeg  -15.3792 12.4113 -17.6844
RightLeg  20.5771 9.6598 3.78596
RightFoot  -13.2452 0.175577 15.9146
RightToes  -1.33073e-015 0 -3.6325e-017
Spine  1.08561 2.43294 3.5982
Spine1  5.67783 3.75514 -5.60075
HEad  -12.6391 69.6538 -27.5043
LeftShoulder1  0.412012 1.87818 -22.8189
LeftArm  30.2449 -13.749 -58.5356
LeftForeArm  34.9901 -31.7982 -5.01838
LeftHand  -0.0588898 4.52622 5.26948
RightShoulder  1.49391 1.53952 24.716
RightArm  -30.8246 -22.9841 44.1002
RightForeArm  76.4817 -4.70209 1.48017
RightHand  0.200607 -7.7148 -11.3321
LeftUpLeg  -16.5996 -9.36877 0.90886
LeftLeg  27.41 -2.709 -1.17103
LeftFoot  -13.8695 0.0368497 -2.09854
LeftToes  1.09107e-011 -1.16422e-010 2.98337e-011
449
root  43.5615 38.6409 27.3266 -179.352 31.3908 177.105
RightUpLeg  -14.3999 9.78461 -15.3087
RightLeg  20.6452 11.7482 4.65254
RightFoot  -13.8923 0.222313 14.1733
RightToes  -1.33073e-015 0 -3.6325e-017
Spine  -0.383674 2.63754 4.15041
Spine1  6.16914 3.78024 -5.09672
HEad  -7.02138 71.0653 -23.4137
LeftShoulder1  0.366046 2.02809 -22.5984
LeftArm  31.851 -12.2498 -57.8948
LeftForeArm  31.9099 -28.3112 -4.38555
LeftHand  -0.0461971 4.77569 4.68077
RightShoulder  1.50848 1.67512 24.1439
RightArm  -30.5436 -22.2836 45.1445
RightForeArm  76.4055 -4.74724 1.72868
RightHand  0.171404 -7.44651 -11.1312
LeftUpLeg  -14.8834 -9.01904 2.98562
LeftLeg  25.4217 -3.61199 -1.5223
LeftFoot  -14.2033 -0.00431616 -3.57932
LeftToes  1.09107e-011 -1.16422e-010 2.98337e-011
450
root  44.5063 38.8755 27.2838 -178.213 30.2454 178.3
RightUpLeg  -12.8552 9.90402 -12.7141
RightLeg  18.9887 10.4498 3.77617
RightFoot  -14.0284 0.221984 13.4849
RightToes  -1.33073e-015 0 -3.6325e-017
Spine  -2.00175 2.45784 4.93799
Spine1  6.22321 3.22372 -3.76713
HEad  -1.46551 72.0317 -18.6013
LeftShoulder1  0.32535 2.15603 -22.2293
LeftArm  34.1619 -10.4373 -56.5755
LeftForeArm  28.4593 -25.5775 -3.97312
LeftHand  -0.0392587 4.82144 3.3231
RightShoulder  1.48444 1.59738 24.1299
RightArm  -29.3498 -21.5125 44.7982
RightForeArm  75.1 -4.89808 2.30353
RightHand  0.150907 -7.20922 -11.2185
LeftUpLeg  -13.4942 -9.21609 5.42806
LeftLeg  22.8458 -4.78125 -1.87097
LeftFoot  -13.7672 -0.0223353 -4.94759
LeftToes  1.09107e-011 -1.16422e-010 2.98337e-011
